<svg width="36" height="36" viewBox="0 0 36 36" fill="none" xmlns="http://www.w3.org/2000/svg">
<g clip-path="url(#clip0_248_11)">
<path d="M2.2651 9.1185C2.56058 9.1181 2.85321 9.17622 3.12611 9.2895C3.399 9.40277 3.64677 9.56897 3.8551 9.7785L15.3646 21.2865C15.7128 21.6348 16.1263 21.9111 16.5813 22.0996C17.0363 22.2881 17.5241 22.3852 18.0166 22.3852C18.5091 22.3852 18.9969 22.2881 19.4519 22.0996C19.9069 21.9111 20.3204 21.6348 20.6686 21.2865L32.1601 9.79349C32.3677 9.5786 32.6159 9.40719 32.8904 9.28927C33.165 9.17135 33.4602 9.10928 33.759 9.10668C34.0577 9.10409 34.354 9.16102 34.6305 9.27415C34.907 9.38728 35.1582 9.55435 35.3695 9.76561C35.5808 9.97686 35.7478 10.2281 35.861 10.5046C35.9741 10.7811 36.031 11.0774 36.0284 11.3761C36.0258 11.6749 35.9638 11.9701 35.8458 12.2447C35.7279 12.5192 35.5565 12.7674 35.3416 12.975L23.8501 24.468C22.302 26.0132 20.204 26.8811 18.0166 26.8811C15.8292 26.8811 13.7312 26.0132 12.1831 24.468L0.673605 12.96C0.358731 12.6453 0.144275 12.2443 0.0573738 11.8077C-0.0295274 11.3711 0.0150318 10.9186 0.185413 10.5073C0.355794 10.0961 0.64434 9.74458 1.01454 9.49736C1.38474 9.25014 1.81995 9.11829 2.2651 9.1185V9.1185Z" fill="white"/>
</g>
<defs>
<clipPath id="clip0_248_11">
<rect width="36" height="36" fill="white"/>
</clipPath>
</defs>
</svg>
